# WaveFront *.obj file (generated by Autodesk ATF)

mtllib Simworld.mtl

g Simworld

v -11950.000178 6050.000090 400.000004
v -11950.000178 8050.000001 700.000000
v -12000.000000 8050.000001 700.000000
v -12000.000178 6050.000090 400.000004
v -50.000001 4050.000001 400.000000
v -50.000001 2050.000001 100.000001
v -0.000001 2050.000001 100.000001
v 0.000000 4050.000001 400.000000
v -50.000001 50.000001 100.000000
v -11950.000178 50.000001 100.000000
v -11950.000178 4050.000001 100.000000
v -12000.000000 4050.000001 100.000000
v -12000.000000 0.000000 100.000000
v 0.000000 0.000000 100.000000
v -50.000001 2050.000001 -0.000000
v -50.000001 4050.000001 300.000000
v -1550.000001 4050.000060 300.000004
v -1550.000001 2050.000001 -0.000000
v -1550.000001 4050.000001 0.000000
v -11950.000178 4050.000001 300.000000
v -11950.000178 4050.000001 400.000000
v -12000.000000 4050.000001 400.000000
v -11950.000178 4050.000001 0.000000
v -50.000001 50.000001 0.000000
v -50.000001 8050.000001 400.000000
v -50.000001 8050.000001 300.000000
v -9450.000178 1050.000001 0.000000
v -10450.000178 1050.000001 0.000000
v -10450.000178 1050.000001 1.000000
v -9450.000178 1050.000001 1.000000
v -9450.000178 50.000001 0.000000
v -9450.000178 50.000001 1.000000
v -10450.000178 50.000001 0.000000
v -10450.000178 50.000001 1.000000
v -10950.000178 50.000001 0.000000
v -10950.000178 50.000001 1.000000
v -11950.000178 50.000001 1.000000
v -10950.000178 1050.000001 0.000000
v -11950.000178 1050.000001 0.000000
v -11950.000178 1050.000001 1.000000
v -10950.000178 1050.000001 1.000000
v -11950.000178 8050.000001 600.000000
v -11950.000178 11950.000178 600.000000
v -11950.000178 11950.000178 700.000000
v -11950.000178 6050.000001 300.000795
v -50.000001 11950.000178 600.000000
v -50.000001 11950.000178 700.000000
v -50.000001 8050.000001 600.000000
v -50.000001 8050.000001 700.000000
v 0.000000 8050.000001 700.000000
v 0.000000 12000.000000 700.000000
v -12000.000000 12000.000000 700.000000
v -10450.000178 6050.000001 300.000397
v -10450.000178 8050.000120 600.000009
v -10450.000178 8050.000001 300.000000
v 0.000000 8050.000001 400.000000
v -12000.000000 12000.000000 -100.000000
v -12000.000000 0.000000 -100.000000
v 0.000000 0.000000 -100.000000
v 0.000000 12000.000000 -100.000000
vt 202.237475 0.000000 0.000000
vt 202.237475 4.999982 0.000000
vt 0.000000 0.000000 0.000000
vt 0.000000 5.000000 0.000000
vt 202.237490 0.000000 0.000000
vt 202.237490 5.000000 0.000000
vt 0.000006 0.000000 0.000000
vt 0.000006 5.000000 0.000000
vt 595.000000 2.500000 0.000000
vt 595.000000 -197.500000 0.000000
vt 600.000000 2.500000 0.000000
vt 600.000000 -202.500000 0.000000
vt -600.000000 -202.500000 0.000000
vt -595.000018 -197.500000 0.000000
vt -600.000000 202.500000 0.000000
vt -595.000018 202.500000 0.000000
vt 0.000000 0.000000 0.000000
vt 202.237484 0.000000 0.000000
vt 0.000000 150.000000 0.000000
vt 202.237490 150.000000 0.000000
vt -15.000000 99.999997 0.000000
vt -15.000000 -100.000003 0.000000
vt 15.000000 100.000003 0.000000
vt 0.000000 0.000000 0.000000
vt 1040.000017 0.000000 0.000000
vt 0.000000 10.000000 0.000000
vt 1040.000017 30.000000 0.000000
vt 0.000000 30.000000 0.000000
vt 0.000000 40.000000 0.000000
vt -4.999982 40.000000 0.000000
vt -4.999982 10.000000 0.000000
vt 400.000000 0.000000 0.000000
vt 400.000000 10.000000 0.000000
vt 200.000000 -0.000000 0.000000
vt 200.000000 10.000000 0.000000
vt -0.000000 30.000000 0.000000
vt -0.000000 40.000000 0.000000
vt -400.000000 40.000000 0.000000
vt -400.000000 30.000000 0.000000
vt 0.000000 0.000000 0.000000
vt 100.000000 0.000000 0.000000
vt 0.000000 0.100000 0.000000
vt 100.000000 0.100000 0.000000
vt 0.000000 0.000000 0.000000
vt 100.000000 0.000000 0.000000
vt 0.000000 0.100000 0.000000
vt 100.000000 0.100000 0.000000
vt 0.000000 0.000000 0.000000
vt 100.000000 0.000000 0.000000
vt 0.000000 0.100000 0.000000
vt 100.000000 0.100000 0.000000
vt -50.000000 -50.000000 0.000000
vt 50.000000 -50.000000 0.000000
vt -50.000000 50.000000 0.000000
vt 50.000000 50.000000 0.000000
vt 940.000017 0.000000 0.000000
vt 940.000017 0.100000 0.000000
vt -0.000000 0.000000 0.000000
vt -0.000000 10.000000 0.000000
vt 1190.000017 10.000000 0.000000
vt 1040.000017 0.100000 0.000000
vt 1090.000017 0.100000 0.000000
vt 1090.000017 0.000000 0.000000
vt 1040.000017 0.000000 0.000000
vt 1190.000017 0.100000 0.000000
vt 0.000000 0.000000 0.000000
vt 100.000000 0.000000 0.000000
vt 0.000000 0.100000 0.000000
vt 100.000000 0.100000 0.000000
vt 0.000000 0.000000 0.000000
vt 100.000000 0.000000 0.000000
vt 0.000000 0.100000 0.000000
vt 100.000000 0.100000 0.000000
vt 50.000000 50.000000 0.000000
vt -50.000000 50.000000 0.000000
vt 50.000000 -50.000000 0.000000
vt -50.000000 -50.000000 0.000000
vt 445.000000 -195.000000 0.000000
vt -595.000018 -195.000000 0.000000
vt 445.000000 -395.000000 0.000000
vt -345.000018 -495.000000 0.000000
vt 595.000000 -595.000000 0.000000
vt -345.000018 -595.000000 0.000000
vt -595.000018 -495.000000 0.000000
vt -495.000018 -495.000000 0.000000
vt -445.000018 -495.000000 0.000000
vt -495.000018 -595.000000 0.000000
vt -445.000018 -595.000000 0.000000
vt 595.000000 -395.000000 0.000000
vt 390.000018 60.000000 0.000000
vt 0.000000 70.000000 0.000000
vt 0.000000 60.000000 0.000000
vt -199.999991 40.000000 0.000000
vt -200.000000 30.000079 0.000000
vt -400.000000 40.000000 0.000000
vt -400.000000 30.000000 0.000000
vt 390.000018 70.000000 0.000000
vt 0.000000 60.000000 0.000000
vt 1190.000017 60.000000 0.000000
vt 0.000000 70.000000 0.000000
vt 1190.000017 70.000000 0.000000
vt -0.000000 60.000000 0.000000
vt 390.000018 60.000000 0.000000
vt -0.000000 70.000000 0.000000
vt 390.000018 70.000000 0.000000
vt 595.000000 -197.500000 0.000000
vt 600.000000 -197.500000 0.000000
vt 595.000000 192.500018 0.000000
vt 600.000000 197.500000 0.000000
vt -600.000000 197.500000 0.000000
vt -595.000018 192.500018 0.000000
vt -600.000000 -197.500000 0.000000
vt -595.000018 -197.500000 0.000000
vt 202.237484 0.000000 0.000000
vt 202.237490 150.000000 0.000000
vt 0.000012 0.000000 0.000000
vt -0.000000 150.000000 0.000000
vt 14.999961 -100.000006 0.000000
vt 15.000000 99.999994 0.000000
vt -15.000000 100.000006 0.000000
vt 1190.000017 60.000000 0.000000
vt 150.000000 60.000001 0.000000
vt 1190.000017 40.000000 0.000000
vt 150.000000 30.000000 0.000000
vt 1190.000017 30.000000 0.000000
vt 1195.000018 40.000000 0.000000
vt 1195.000018 70.000000 0.000000
vt 1190.000017 70.000000 0.000000
vt -445.000009 200.000000 0.000000
vt -445.000009 0.000000 0.000000
vt 595.000009 200.000000 0.000000
vt 445.000009 -199.999994 0.000000
vt 595.000009 -200.000000 0.000000
vt -595.000009 0.000000 0.000000
vt -595.000009 -200.000000 0.000000
vt -2.500000 -200.000000 0.000000
vt 2.500000 -200.000000 0.000000
vt -2.500000 200.000000 0.000000
vt 2.500000 200.000000 0.000000
vt -2.500009 0.000009 0.000000
vt -2.499991 -200.000000 0.000000
vt 2.499991 0.000009 0.000000
vt 2.499991 -200.000000 0.000000
vt -595.000009 -195.000009 0.000000
vt -445.000009 -194.999997 0.000000
vt -595.000009 195.000009 0.000000
vt 595.000009 195.000009 0.000000
vt 595.000009 -195.000009 0.000000
vt 100.000000 0.000000 0.000000
vt 400.000000 0.000000 0.000000
vt 100.000000 0.100000 0.000000
vt 400.000000 10.000000 0.000000
vt 0.000000 10.000000 0.000000
vt 0.000000 0.100000 0.000000
vt 805.000000 -70.000000 0.000000
vt 1200.000000 -70.000000 0.000000
vt 605.000009 -40.000000 0.000000
vt 1200.000000 10.000000 0.000000
vt 405.000000 -10.000000 0.000000
vt 0.000000 10.000000 0.000000
vt 0.000000 -10.000000 0.000000
vt 405.000000 -40.000000 0.000000
vt 1200.000000 10.000000 0.000000
vt 0.000000 10.000000 0.000000
vt 1200.000000 -10.000000 0.000000
vt 0.000000 -10.000000 0.000000
vt 1200.000000 -10.000000 0.000000
vt 1200.000000 10.000000 0.000000
vt 995.000000 -10.000000 0.000000
vt 0.000000 10.000000 0.000000
vt 395.000000 -40.000000 0.000000
vt 0.000000 -70.000000 0.000000
vt 395.000000 -70.000000 0.000000
vt 795.000000 -40.000000 0.000000
vt 1200.000000 10.000000 0.000000
vt 0.000000 10.000000 0.000000
vt 1200.000000 -70.000000 0.000000
vt 0.000000 -70.000000 0.000000
vt 600.000000 600.000000 0.000000
vt -600.000000 600.000000 0.000000
vt 600.000000 -600.000000 0.000000
vt -600.000000 -600.000000 0.000000
vn 0.000000 -0.014834 0.098894
vn 0.000000 -0.014834 0.098894
vn 0.000000 -0.014834 0.098894
vn 0.000000 -0.014834 0.098894
vn 0.000000 -0.014834 0.098894
vn 0.000000 -0.014834 0.098894
vn 0.000000 -0.014834 0.098894
vn 0.000000 -0.014834 0.098894
vn 0.000000 0.000000 0.100000
vn 0.000000 0.000000 0.100000
vn 0.000000 0.000000 0.100000
vn 0.000000 0.000000 0.100000
vn 0.000000 0.000000 0.100000
vn 0.000000 0.000000 0.100000
vn 0.000000 0.000000 0.100000
vn 0.000000 0.000000 0.100000
vn 0.000000 -0.014834 0.098894
vn 0.000000 -0.014834 0.098894
vn 0.000000 -0.014834 0.098894
vn 0.000000 -0.014834 0.098894
vn -0.100000 0.000000 0.000000
vn -0.100000 0.000000 0.000000
vn -0.100000 0.000000 0.000000
vn 0.000000 -0.100000 0.000000
vn 0.000000 -0.100000 0.000000
vn 0.000000 -0.100000 0.000000
vn 0.000000 -0.100000 0.000000
vn 0.000000 -0.100000 0.000000
vn 0.000000 -0.100000 0.000000
vn 0.000000 -0.100000 0.000000
vn 0.000000 -0.100000 0.000000
vn -0.100000 0.000000 0.000000
vn -0.100000 0.000000 0.000000
vn -0.100000 0.000000 0.000000
vn -0.100000 0.000000 0.000000
vn -0.100000 0.000000 0.000000
vn -0.100000 0.000000 0.000000
vn -0.100000 0.000000 0.000000
vn -0.100000 0.000000 0.000000
vn 0.000000 0.100000 0.000000
vn 0.000000 0.100000 0.000000
vn 0.000000 0.100000 0.000000
vn 0.000000 0.100000 0.000000
vn 0.100000 0.000000 0.000000
vn 0.100000 0.000000 0.000000
vn 0.100000 0.000000 0.000000
vn 0.100000 0.000000 0.000000
vn -0.100000 0.000000 0.000000
vn -0.100000 0.000000 0.000000
vn -0.100000 0.000000 0.000000
vn -0.100000 0.000000 0.000000
vn 0.000000 0.000000 0.100000
vn 0.000000 0.000000 0.100000
vn 0.000000 0.000000 0.100000
vn 0.000000 0.000000 0.100000
vn 0.000000 0.100000 0.000000
vn 0.000000 0.100000 0.000000
vn 0.000000 0.100000 0.000000
vn 0.000000 0.100000 0.000000
vn 0.000000 0.100000 0.000000
vn 0.000000 0.100000 0.000000
vn 0.000000 0.100000 0.000000
vn 0.000000 0.100000 0.000000
vn 0.000000 0.100000 0.000000
vn 0.000000 0.100000 0.000000
vn 0.000000 0.100000 0.000000
vn 0.000000 0.100000 0.000000
vn 0.000000 0.100000 0.000000
vn 0.000000 0.100000 0.000000
vn 0.100000 0.000000 0.000000
vn 0.100000 0.000000 0.000000
vn 0.100000 0.000000 0.000000
vn 0.100000 0.000000 0.000000
vn 0.000000 0.000000 0.100000
vn 0.000000 0.000000 0.100000
vn 0.000000 0.000000 0.100000
vn 0.000000 0.000000 0.100000
vn 0.000000 -0.000000 0.100000
vn 0.000000 -0.000000 0.100000
vn 0.000000 -0.000000 0.100000
vn 0.000000 -0.000000 0.100000
vn 0.000000 -0.000000 0.100000
vn 0.000000 -0.000000 0.100000
vn 0.000000 -0.000000 0.100000
vn 0.000000 -0.000000 0.100000
vn 0.000000 -0.000000 0.100000
vn 0.000000 -0.000000 0.100000
vn 0.000000 -0.000000 0.100000
vn 0.000000 -0.000000 0.100000
vn 0.100000 0.000000 0.000000
vn 0.100000 0.000000 0.000000
vn 0.100000 0.000000 0.000000
vn 0.100000 0.000000 0.000000
vn 0.100000 0.000000 0.000000
vn 0.100000 0.000000 0.000000
vn 0.100000 0.000000 0.000000
vn 0.100000 0.000000 0.000000
vn 0.000000 -0.100000 0.000000
vn 0.000000 -0.100000 0.000000
vn 0.000000 -0.100000 0.000000
vn 0.000000 -0.100000 0.000000
vn -0.100000 0.000000 0.000000
vn -0.100000 0.000000 0.000000
vn -0.100000 0.000000 0.000000
vn -0.100000 0.000000 0.000000
vn 0.000000 0.000000 0.100000
vn 0.000000 0.000000 0.100000
vn 0.000000 0.000000 0.100000
vn 0.000000 0.000000 0.100000
vn 0.000000 0.000000 0.100000
vn 0.000000 0.000000 0.100000
vn 0.000000 0.000000 0.100000
vn 0.000000 0.000000 0.100000
vn 0.000000 -0.014834 0.098894
vn 0.000000 -0.014834 0.098894
vn 0.000000 -0.014834 0.098894
vn 0.000000 -0.014834 0.098894
vn 0.100000 0.000000 0.000000
vn 0.100000 0.000000 0.000000
vn 0.100000 0.000000 0.000000
vn 0.000000 -0.100000 0.000000
vn 0.000000 -0.100000 0.000000
vn 0.000000 -0.100000 0.000000
vn 0.000000 -0.100000 0.000000
vn 0.000000 -0.100000 0.000000
vn 0.000000 -0.100000 0.000000
vn 0.000000 -0.100000 0.000000
vn 0.000000 -0.100000 0.000000
vn 0.000000 0.000000 0.100000
vn 0.000000 0.000000 0.100000
vn 0.000000 0.000000 0.100000
vn 0.000000 0.000000 0.100000
vn 0.000000 0.000000 0.100000
vn 0.000000 0.000000 0.100000
vn 0.000000 0.000000 0.100000
vn 0.000000 0.000000 0.100000
vn 0.000000 0.000000 0.100000
vn 0.000000 0.000000 0.100000
vn 0.000000 0.000000 0.100000
vn 0.000000 0.000000 0.100000
vn 0.000000 0.000000 0.100000
vn 0.000000 0.000000 0.100000
vn 0.000000 0.000000 0.100000
vn 0.000000 0.000000 0.100000
vn 0.000000 0.000000 0.100000
vn 0.000000 0.000000 0.100000
vn 0.000000 0.000000 0.100000
vn 0.000000 0.000000 0.100000
vn 0.100000 0.000000 0.000000
vn 0.100000 0.000000 0.000000
vn 0.100000 0.000000 0.000000
vn 0.100000 0.000000 0.000000
vn 0.100000 0.000000 0.000000
vn 0.100000 0.000000 0.000000
vn -0.100000 0.000000 0.000000
vn -0.100000 0.000000 0.000000
vn -0.100000 0.000000 0.000000
vn -0.100000 0.000000 0.000000
vn -0.100000 0.000000 0.000000
vn -0.100000 0.000000 0.000000
vn -0.100000 0.000000 0.000000
vn -0.100000 0.000000 0.000000
vn 0.000000 -0.100000 0.000000
vn 0.000000 -0.100000 0.000000
vn 0.000000 -0.100000 0.000000
vn 0.000000 -0.100000 0.000000
vn 0.100000 0.000000 0.000000
vn 0.100000 0.000000 0.000000
vn 0.100000 0.000000 0.000000
vn 0.100000 0.000000 0.000000
vn 0.100000 0.000000 0.000000
vn 0.100000 0.000000 0.000000
vn 0.100000 0.000000 0.000000
vn 0.100000 0.000000 0.000000
vn 0.000000 0.100000 0.000000
vn 0.000000 0.100000 0.000000
vn 0.000000 0.100000 0.000000
vn 0.000000 0.100000 0.000000
vn 0.000000 0.000000 -0.100000
vn 0.000000 0.000000 -0.100000
vn 0.000000 0.000000 -0.100000
vn 0.000000 0.000000 -0.100000
usemtl Paint_-_Enamel_Glossy_(White)
f 2/1/1 3/2/2 1/3/3
f 1/3/3 3/2/2 4/4/4
f 6/5/5 7/6/6 5/7/7
f 5/7/7 7/6/6 8/8/8
f 6/9/9 9/10/10 7/11/11
f 7/11/11 9/10/10 14/12/12
f 14/12/12 9/10/10 13/13/13
f 13/13/13 9/10/10 10/14/14
f 13/13/13 10/14/14 12/15/15
f 12/15/15 10/14/14 11/16/16
f 15/17/17 16/18/18 18/19/19
f 18/19/19 16/18/18 17/20/20
f 19/21/21 18/22/22 17/23/23
f 23/24/24 19/25/25 11/26/26
f 11/26/26 19/25/25 17/27/27
f 11/26/26 17/27/27 20/28/28
f 21/29/29 22/30/30 20/28/28
f 20/28/28 22/30/30 12/31/31
f 20/28/28 12/31/31 11/26/26
f 24/32/32 9/33/33 15/34/34
f 15/34/34 9/33/33 6/35/35
f 15/34/34 6/35/35 16/36/36
f 16/36/36 6/35/35 5/37/37
f 16/36/36 5/37/37 25/38/38
f 25/38/38 26/39/39 16/36/36
f 27/40/40 28/41/41 30/42/42
f 30/42/42 28/41/41 29/43/43
f 31/44/44 27/45/45 32/46/46
f 32/46/46 27/45/45 30/47/47
f 28/48/48 33/49/49 29/50/50
f 29/50/50 33/49/49 34/51/51
usemtl Paint_-_Enamel_Glossy_(Green)
f 34/52/52 32/53/53 29/54/54
f 29/54/54 32/53/53 30/55/55
usemtl Paint_-_Enamel_Glossy_(White)
f 31/56/56 32/57/57 24/58/58
f 24/58/58 32/57/57 9/59/59
f 9/59/59 32/57/57 10/60/60
f 10/60/60 32/57/57 34/61/61
f 10/60/60 34/61/61 36/62/62
f 36/62/62 34/61/61 35/63/63
f 35/63/63 34/61/61 33/64/64
f 36/62/62 37/65/65 10/60/60
f 38/66/66 39/67/67 41/68/68
f 41/68/68 39/67/67 40/69/69
f 35/70/70 38/71/71 36/72/72
f 36/72/72 38/71/71 41/73/73
usemtl Paint_-_Enamel_Glossy_(Red)
f 41/74/74 40/75/75 36/76/76
f 36/76/76 40/75/75 37/77/77
usemtl Paint_-_Enamel_Glossy_(White)
f 19/78/78 23/79/79 18/80/80
f 18/80/80 23/79/79 27/81/81
f 18/80/80 27/81/81 24/82/82
f 24/82/82 27/81/81 31/83/83
f 39/84/84 38/85/85 23/79/79
f 23/79/79 38/85/85 28/86/86
f 23/79/79 28/86/86 27/81/81
f 35/87/87 33/88/88 38/85/85
f 38/85/85 33/88/88 28/86/86
f 24/82/82 15/89/89 18/80/80
f 43/90/90 2/91/91 42/92/92
f 42/92/92 2/91/91 1/93/93
f 42/92/92 1/93/93 45/94/94
f 45/94/94 1/93/93 21/95/95
f 45/94/94 21/95/95 20/96/96
f 43/90/90 44/97/97 2/91/91
f 43/98/98 46/99/99 44/100/100
f 44/100/100 46/99/99 47/101/101
f 46/102/102 48/103/103 47/104/104
f 47/104/104 48/103/103 49/105/105
f 49/106/106 50/107/107 47/108/108
f 47/108/108 50/107/107 51/109/109
f 47/108/108 51/109/109 52/110/110
f 47/108/108 52/110/110 44/111/111
f 44/111/111 52/110/110 3/112/112
f 44/111/111 3/112/112 2/113/113
f 45/114/114 53/115/115 42/116/116
f 42/116/116 53/115/115 54/117/117
f 53/118/118 55/119/119 54/120/120
f 48/121/121 54/122/122 25/123/123
f 25/123/123 54/122/122 55/124/124
f 25/123/123 55/124/124 26/125/125
f 25/123/123 56/126/126 48/121/121
f 48/121/121 56/126/126 50/127/127
f 48/121/121 50/127/127 49/128/128
f 55/129/129 53/130/130 26/131/131
f 26/131/131 53/130/130 17/132/132
f 26/131/131 17/132/132 16/133/133
f 45/134/134 20/135/135 53/130/130
f 53/130/130 20/135/135 17/132/132
f 5/136/136 8/137/137 25/138/138
f 25/138/138 8/137/137 56/139/139
f 4/140/140 22/141/141 1/142/142
f 1/142/142 22/141/141 21/143/143
f 42/144/144 54/145/145 43/146/146
f 43/146/146 54/145/145 46/147/147
f 46/147/147 54/145/145 48/148/148
f 39/149/149 23/150/150 40/151/151
f 40/151/151 23/150/150 11/152/152
f 40/151/151 11/152/152 10/153/153
f 10/153/153 37/154/154 40/151/151
f 3/155/155 52/156/156 4/157/157
f 4/157/157 52/156/156 57/158/158
f 4/157/157 57/158/158 12/159/159
f 12/159/159 57/158/158 58/160/160
f 12/159/159 58/160/160 13/161/161
f 12/159/159 22/162/162 4/157/157
f 58/163/163 59/164/164 13/165/165
f 13/165/165 59/164/164 14/166/166
f 14/167/167 59/168/168 7/169/169
f 7/169/169 59/168/168 60/170/170
f 7/169/169 60/170/170 56/171/171
f 56/171/171 60/170/170 51/172/172
f 56/171/171 51/172/172 50/173/173
f 56/171/171 8/174/174 7/169/169
f 60/175/175 57/176/176 51/177/177
f 51/177/177 57/176/176 52/178/178
f 57/179/179 60/180/180 58/181/181
f 58/181/181 60/180/180 59/182/182
# 60 vertices
# 182 texture params
# 182 normals
# 116 facets

# 1 groups
